<svg width="989" height="300" xmlns="http://www.w3.org/2000/svg" xmlns:xlink="http://www.w3.org/1999/xlink" xml:space="preserve" overflow="hidden"><defs><filter id="fx0" x="-10%" y="-10%" width="120%" height="120%" filterUnits="userSpaceOnUse" primitiveUnits="userSpaceOnUse"><feComponentTransfer color-interpolation-filters="sRGB"><feFuncR type="discrete" tableValues="0 0"/><feFuncG type="discrete" tableValues="0 0"/><feFuncB type="discrete" tableValues="0 0"/><feFuncA type="linear" slope="0.4" intercept="0"/></feComponentTransfer><feGaussianBlur stdDeviation="3.36394 3.36394"/></filter><filter id="fx1" x="-10%" y="-10%" width="120%" height="120%" filterUnits="userSpaceOnUse" primitiveUnits="userSpaceOnUse"><feComponentTransfer color-interpolation-filters="sRGB"><feFuncR type="discrete" tableValues="0 0"/><feFuncG type="discrete" tableValues="0 0"/><feFuncB type="discrete" tableValues="0 0"/><feFuncA type="linear" slope="0.4" intercept="0"/></feComponentTransfer><feGaussianBlur stdDeviation="3.36394 3.36394"/></filter><filter id="fx2" x="-10%" y="-10%" width="120%" height="120%" filterUnits="userSpaceOnUse" primitiveUnits="userSpaceOnUse"><feComponentTransfer color-interpolation-filters="sRGB"><feFuncR type="discrete" tableValues="0 0"/><feFuncG type="discrete" tableValues="0 0"/><feFuncB type="discrete" tableValues="0 0"/><feFuncA type="linear" slope="0.4" intercept="0"/></feComponentTransfer><feGaussianBlur stdDeviation="3.36394 3.36394"/></filter><filter id="fx3" x="-10%" y="-10%" width="120%" height="120%" filterUnits="userSpaceOnUse" primitiveUnits="userSpaceOnUse"><feComponentTransfer color-interpolation-filters="sRGB"><feFuncR type="discrete" tableValues="0 0"/><feFuncG type="discrete" tableValues="0 0"/><feFuncB type="discrete" tableValues="0 0"/><feFuncA type="linear" slope="0.4" intercept="0"/></feComponentTransfer><feGaussianBlur stdDeviation="3.36394 3.36394"/></filter><filter id="fx4" x="-10%" y="-10%" width="120%" height="120%" filterUnits="userSpaceOnUse" primitiveUnits="userSpaceOnUse"><feComponentTransfer color-interpolation-filters="sRGB"><feFuncR type="discrete" tableValues="0 0"/><feFuncG type="discrete" tableValues="0 0"/><feFuncB type="discrete" tableValues="0 0"/><feFuncA type="linear" slope="0.4" intercept="0"/></feComponentTransfer><feGaussianBlur stdDeviation="3.36394 3.36394"/></filter><filter id="fx5" x="-10%" y="-10%" width="120%" height="120%" filterUnits="userSpaceOnUse" primitiveUnits="userSpaceOnUse"><feComponentTransfer color-interpolation-filters="sRGB"><feFuncR type="discrete" tableValues="0 0"/><feFuncG type="discrete" tableValues="0 0"/><feFuncB type="discrete" tableValues="0 0"/><feFuncA type="linear" slope="0.4" intercept="0"/></feComponentTransfer><feGaussianBlur stdDeviation="3.36395 3.36395"/></filter><filter id="fx6" x="-10%" y="-10%" width="120%" height="120%" filterUnits="userSpaceOnUse" primitiveUnits="userSpaceOnUse"><feComponentTransfer color-interpolation-filters="sRGB"><feFuncR type="discrete" tableValues="0 0"/><feFuncG type="discrete" tableValues="0 0"/><feFuncB type="discrete" tableValues="0 0"/><feFuncA type="linear" slope="0.4" intercept="0"/></feComponentTransfer><feGaussianBlur stdDeviation="3.36395 3.36395"/></filter><filter id="fx7" x="-10%" y="-10%" width="120%" height="120%" filterUnits="userSpaceOnUse" primitiveUnits="userSpaceOnUse"><feComponentTransfer color-interpolation-filters="sRGB"><feFuncR type="discrete" tableValues="0 0"/><feFuncG type="discrete" tableValues="0 0"/><feFuncB type="discrete" tableValues="0 0"/><feFuncA type="linear" slope="0.4" intercept="0"/></feComponentTransfer><feGaussianBlur stdDeviation="3.36395 3.36395"/></filter><filter id="fx8" x="-10%" y="-10%" width="120%" height="120%" filterUnits="userSpaceOnUse" primitiveUnits="userSpaceOnUse"><feComponentTransfer color-interpolation-filters="sRGB"><feFuncR type="discrete" tableValues="0 0"/><feFuncG type="discrete" tableValues="0 0"/><feFuncB type="discrete" tableValues="0 0"/><feFuncA type="linear" slope="0.4" intercept="0"/></feComponentTransfer><feGaussianBlur stdDeviation="3.36395 3.36395"/></filter><filter id="fx9" x="-10%" y="-10%" width="120%" height="120%" filterUnits="userSpaceOnUse" primitiveUnits="userSpaceOnUse"><feComponentTransfer color-interpolation-filters="sRGB"><feFuncR type="discrete" tableValues="0 0"/><feFuncG type="discrete" tableValues="0 0"/><feFuncB type="discrete" tableValues="0 0"/><feFuncA type="linear" slope="0.4" intercept="0"/></feComponentTransfer><feGaussianBlur stdDeviation="3.36395 3.36395"/></filter><filter id="fx10" x="-10%" y="-10%" width="120%" height="120%" filterUnits="userSpaceOnUse" primitiveUnits="userSpaceOnUse"><feComponentTransfer color-interpolation-filters="sRGB"><feFuncR type="discrete" tableValues="0 0"/><feFuncG type="discrete" tableValues="0 0"/><feFuncB type="discrete" tableValues="0 0"/><feFuncA type="linear" slope="0.4" intercept="0"/></feComponentTransfer><feGaussianBlur stdDeviation="4.43154 4.43154"/></filter></defs><g transform="translate(-3411 -2207)"><g filter="url(#fx0)" transform="translate(3442 2240)"><g><path d="M56.1436 13.468C58.7275 13.468 61.2158 13.6834 63.6084 14.114 66.001 14.5447 68.2141 15.1069 70.2478 15.8008 72.2815 16.4946 74.1118 17.2962 75.7388 18.2053 77.3657 19.1145 78.5022 19.8921 79.1482 20.5381 79.7942 21.1841 80.2368 21.7224 80.4761 22.1531 80.7153 22.5837 80.9067 23.134 81.0503 23.804 81.1938 24.4739 81.3015 25.2634 81.3733 26.1726 81.4451 27.0818 81.4809 28.2063 81.4809 29.5462 81.4809 30.9817 81.4331 32.2019 81.3374 33.2068 81.2417 34.2117 81.0742 35.0252 80.835 35.6472 80.5957 36.2693 80.3086 36.7239 79.9736 37.011 79.6387 37.2981 79.2559 37.4417 78.8252 37.4417 78.1074 37.4417 77.1982 37.023 76.0976 36.1856 74.9971 35.3482 73.5735 34.415 71.8269 33.3862 70.0803 32.3574 67.9988 31.4243 65.5823 30.5869 63.1658 29.7495 60.2827 29.3308 56.9331 29.3308 53.2485 29.3308 49.9587 30.0845 47.0637 31.5918 44.1687 33.0991 41.7043 35.2524 39.6707 38.0518 37.637 40.8511 36.0938 44.2366 35.041 48.2083 33.9883 52.1799 33.4619 56.6541 33.4619 61.6306 33.4619 67.0857 34.0242 71.811 35.1487 75.8066 36.2732 79.8022 37.8762 83.092 39.9578 85.676 42.0393 88.26 44.5515 90.186 47.4944 91.4541 50.4373 92.7222 53.751 93.3562 57.4355 93.3562 60.7852 93.3562 63.6802 92.9614 66.1206 92.1719 68.561 91.3823 70.6545 90.509 72.4011 89.552 74.1477 88.595 75.5832 87.7336 76.7078 86.968 77.8323 86.2024 78.7056 85.8196 79.3276 85.8196 79.8061 85.8196 80.189 85.9153 80.4761 86.1067 80.7632 86.2981 81.0024 86.6809 81.1938 87.2551 81.3852 87.8293 81.5288 88.6309 81.6245 89.6597 81.7202 90.6885 81.7681 92.0642 81.7681 93.7869 81.7681 94.9832 81.7322 96 81.6604 96.8374 81.5886 97.6748 81.4809 98.3926 81.3374 98.9907 81.1938 99.5889 81.0024 100.103 80.7632 100.534 80.5239 100.965 80.1411 101.455 79.6147 102.005 79.0884 102.556 78.0715 103.261 76.5642 104.123 75.0569 104.984 73.2146 105.81 71.0374 106.599 68.8601 107.389 66.3718 108.047 63.5725 108.573 60.7732 109.099 57.7466 109.363 54.4927 109.363 48.1284 109.363 42.3862 108.382 37.2661 106.42 32.146 104.458 27.7915 101.527 24.2026 97.627 20.6138 93.7271 17.8623 88.8582 15.9482 83.0203 14.0342 77.1824 13.0771 70.3875 13.0771 62.6355 13.0771 54.74 14.1299 47.7297 16.2354 41.6047 18.3408 35.4797 21.2837 30.3357 25.064 26.1726 28.8442 22.0095 33.3782 18.8513 38.6658 16.698 43.9534 14.5447 49.7793 13.468 56.1436 13.468Z" stroke="#FFFFFF" stroke-width="3" stroke-linejoin="round" stroke-miterlimit="10" fill="#8AC452" fill-rule="evenodd"/></g></g><path d="M3492.76 2248.08C3495.34 2248.08 3497.83 2248.3 3500.22 2248.73 3502.62 2249.16 3504.83 2249.72 3506.86 2250.42 3508.9 2251.11 3510.73 2251.91 3512.35 2252.82 3513.98 2253.73 3515.12 2254.51 3515.76 2255.15 3516.41 2255.8 3516.85 2256.34 3517.09 2256.77 3517.33 2257.2 3517.52 2257.75 3517.67 2258.42 3517.81 2259.09 3517.92 2259.88 3517.99 2260.79 3518.06 2261.7 3518.1 2262.82 3518.1 2264.16 3518.1 2265.6 3518.05 2266.82 3517.95 2267.82 3517.86 2268.83 3517.69 2269.64 3517.45 2270.26 3517.21 2270.88 3516.92 2271.34 3516.59 2271.63 3516.25 2271.91 3515.87 2272.06 3515.44 2272.06 3514.72 2272.06 3513.81 2271.64 3512.71 2270.8 3511.61 2269.96 3510.19 2269.03 3508.44 2268 3506.7 2266.97 3504.61 2266.04 3502.2 2265.2 3499.78 2264.36 3496.9 2263.95 3493.55 2263.95 3489.86 2263.95 3486.57 2264.7 3483.68 2266.21 3480.78 2267.71 3478.32 2269.87 3476.29 2272.67 3474.25 2275.47 3472.71 2278.85 3471.66 2282.82 3470.6 2286.8 3470.08 2291.27 3470.08 2296.25 3470.08 2301.7 3470.64 2306.43 3471.76 2310.42 3472.89 2314.42 3474.49 2317.71 3476.57 2320.29 3478.65 2322.88 3481.17 2324.8 3484.11 2326.07 3487.05 2327.34 3490.37 2327.97 3494.05 2327.97 3497.4 2327.97 3500.3 2327.58 3502.74 2326.79 3505.18 2326 3507.27 2325.12 3509.02 2324.17 3510.76 2323.21 3512.2 2322.35 3513.32 2321.58 3514.45 2320.82 3515.32 2320.44 3515.94 2320.44 3516.42 2320.44 3516.8 2320.53 3517.09 2320.72 3517.38 2320.91 3517.62 2321.3 3517.81 2321.87 3518 2322.44 3518.14 2323.25 3518.24 2324.28 3518.34 2325.3 3518.38 2326.68 3518.38 2328.4 3518.38 2329.6 3518.35 2330.62 3518.28 2331.45 3518.2 2332.29 3518.1 2333.01 3517.95 2333.61 3517.81 2334.2 3517.62 2334.72 3517.38 2335.15 3517.14 2335.58 3516.76 2336.07 3516.23 2336.62 3515.7 2337.17 3514.69 2337.88 3513.18 2338.74 3511.67 2339.6 3509.83 2340.43 3507.65 2341.21 3505.48 2342 3502.99 2342.66 3500.19 2343.19 3497.39 2343.71 3494.36 2343.98 3491.11 2343.98 3484.74 2343.98 3479 2343 3473.88 2341.04 3468.76 2339.07 3464.41 2336.14 3460.82 2332.24 3457.23 2328.34 3454.48 2323.47 3452.56 2317.64 3450.65 2311.8 3449.69 2305 3449.69 2297.25 3449.69 2289.36 3450.75 2282.35 3452.85 2276.22 3454.96 2270.1 3457.9 2264.95 3461.68 2260.79 3465.46 2256.62 3469.99 2253.47 3475.28 2251.31 3480.57 2249.16 3486.39 2248.08 3492.76 2248.08Z" stroke="#FFFFFF" stroke-width="3" stroke-linejoin="round" stroke-miterlimit="10" fill="#8AC452" fill-rule="evenodd"/><text fill="#000000" fill-opacity="0" font-family="Arial,Arial_MSFontService,sans-serif" font-size="95.8945" x="3449.69" y="2331.99">C</text><g filter="url(#fx1)" transform="translate(3518 2282)"><g><path d="M38.9719 23.7459C36.9667 23.7459 35.2122 24.1129 33.7083 24.8469 32.2043 25.581 30.969 26.6552 30.0022 28.0696 29.0354 29.484 28.3103 31.1848 27.8269 33.1721 27.3435 35.1594 27.1018 37.4242 27.1018 39.9666 27.1018 42.3298 27.2987 44.5051 27.6926 46.4924 28.0865 48.4797 28.7221 50.2074 29.5994 51.6755 30.4766 53.1436 31.6672 54.2805 33.1711 55.0862 34.675 55.8918 36.537 56.2947 38.7571 56.2947 40.7981 56.2947 42.5706 55.9277 44.0745 55.1936 45.5784 54.4596 46.8137 53.3943 47.7805 51.9978 48.7473 50.6013 49.4635 48.9094 49.929 46.9221 50.3944 44.9348 50.6272 42.67 50.6272 40.1277 50.6272 37.7644 50.4392 35.5891 50.0632 33.6018 49.6873 31.6145 49.0517 29.8868 48.1565 28.4187 47.2613 26.9506 46.0707 25.8048 44.5847 24.9812 43.0987 24.1576 41.2278 23.7459 38.9719 23.7459ZM39.4553 13.0574C43.7522 13.0574 47.4762 13.6392 50.6272 14.803 53.7782 15.9667 56.3832 17.6765 58.4421 19.9324 60.5011 22.1882 62.0318 24.9633 63.0344 28.2576 64.037 31.5518 64.5383 35.3295 64.5383 39.5906 64.5383 43.6726 64.0012 47.3966 62.927 50.7625 61.8528 54.1283 60.2235 57.0287 58.0393 59.4636 55.8551 61.8985 53.1158 63.7784 49.8215 65.1033 46.5273 66.4281 42.678 67.0906 38.2737 67.0906 34.0126 67.0906 30.3066 66.4998 27.1555 65.3181 24.0045 64.1365 21.3905 62.4177 19.3137 60.1619 17.2369 57.906 15.6972 55.1309 14.6946 51.8367 13.692 48.5424 13.1907 44.7826 13.1907 40.5574 13.1907 36.4753 13.7367 32.7424 14.8289 29.3586 15.921 25.9749 17.5592 23.0745 19.7434 20.6575 21.9277 18.2405 24.658 16.3696 27.9343 15.0447 31.2107 13.7198 35.051 13.0574 39.4553 13.0574Z" stroke="#FFFFFF" stroke-width="3" stroke-linejoin="round" stroke-miterlimit="10" fill="#8AC452" fill-rule="evenodd"/></g></g><path d="M3551.59 2300.36C3549.58 2300.36 3547.83 2300.73 3546.32 2301.46 3544.82 2302.2 3543.58 2303.27 3542.62 2304.69 3541.65 2306.1 3540.93 2307.8 3540.44 2309.79 3539.96 2311.77 3539.72 2314.04 3539.72 2316.58 3539.72 2318.95 3539.91 2321.12 3540.31 2323.11 3540.7 2325.1 3541.34 2326.82 3542.21 2328.29 3543.09 2329.76 3544.28 2330.9 3545.79 2331.7 3547.29 2332.51 3549.15 2332.91 3551.37 2332.91 3553.41 2332.91 3555.19 2332.54 3556.69 2331.81 3558.19 2331.07 3559.43 2330.01 3560.4 2328.61 3561.36 2327.22 3562.08 2325.52 3562.54 2323.54 3563.01 2321.55 3563.24 2319.29 3563.24 2316.74 3563.24 2314.38 3563.05 2312.2 3562.68 2310.22 3562.3 2308.23 3561.67 2306.5 3560.77 2305.03 3559.88 2303.57 3558.69 2302.42 3557.2 2301.6 3555.71 2300.77 3553.84 2300.36 3551.59 2300.36ZM3552.07 2289.67C3556.37 2289.67 3560.09 2290.25 3563.24 2291.42 3566.39 2292.58 3569 2294.29 3571.06 2296.55 3573.12 2298.8 3574.65 2301.58 3575.65 2304.87 3576.65 2308.17 3577.15 2311.95 3577.15 2316.21 3577.15 2320.29 3576.62 2324.01 3575.54 2327.38 3574.47 2330.74 3572.84 2333.64 3570.65 2336.08 3568.47 2338.51 3565.73 2340.39 3562.44 2341.72 3559.14 2343.04 3555.29 2343.71 3550.89 2343.71 3546.63 2343.71 3542.92 2343.12 3539.77 2341.93 3536.62 2340.75 3534.01 2339.03 3531.93 2336.78 3529.85 2334.52 3528.31 2331.75 3527.31 2328.45 3526.31 2325.16 3525.81 2321.4 3525.81 2317.17 3525.81 2313.09 3526.35 2309.36 3527.44 2305.97 3528.54 2302.59 3530.17 2299.69 3532.36 2297.27 3534.54 2294.86 3537.27 2292.99 3540.55 2291.66 3543.83 2290.34 3547.67 2289.67 3552.07 2289.67Z" stroke="#FFFFFF" stroke-width="3" stroke-linejoin="round" stroke-miterlimit="10" fill="#8AC452" fill-rule="evenodd"/><text fill="#000000" fill-opacity="0" font-family="Arial,Arial_MSFontService,sans-serif" font-size="54.0332" x="3525.81" y="2336.95">o</text><g filter="url(#fx2)" transform="translate(3578 2289)"><g><path d="M87.0618 13.6267C91.4324 13.6267 95.1422 15.1532 98.191 18.2063 100.754 20.8001 102.035 24.6366 102.035 29.7161L102.035 58.8552 91.093 58.8552 91.093 39.5458C91.093 34.2836 90.8571 30.7889 90.3854 29.0616 89.9136 27.3343 89.0914 26.0187 87.9189 25.1146 86.7463 24.2106 85.2976 23.7585 83.5727 23.7585 81.3356 23.7585 79.4152 24.5075 77.8114 26.0053 76.2077 27.5031 75.0957 29.5744 74.4755 32.2193 74.1522 33.5955 73.9905 36.5774 73.9905 41.165L73.9905 58.8552 62.9265 58.8552 62.9265 14.7615 73.9905 14.7615 73.9905 19.2803C76.4994 17.1653 78.7723 15.6942 80.8092 14.8672 82.8461 14.0402 84.9303 13.6267 87.0618 13.6267ZM38.0618 13.6267C42.4324 13.6267 46.1422 15.1532 49.191 18.2063 51.7539 20.8001 53.0354 24.6366 53.0354 29.7161L53.0354 58.8552 42.093 58.8552 42.093 39.5458C42.093 34.2836 41.8571 30.7889 41.3854 29.0616 40.9136 27.3343 40.0915 26.0187 38.9189 25.1146 37.7464 24.2106 36.2976 23.7585 34.5727 23.7585 32.3356 23.7585 30.4152 24.5075 28.8114 26.0053 27.2077 27.5031 26.0957 29.5744 25.4755 32.2193 25.1522 33.5955 24.9905 36.5774 24.9905 41.165L24.9905 58.8552 13.9265 58.8552 13.9265 14.7615 24.9905 14.7615 24.9905 19.2803C27.4994 17.1653 29.7723 15.6942 31.8092 14.8672 33.8461 14.0402 35.9303 13.6267 38.0618 13.6267Z" stroke="#FFFFFF" stroke-width="3" stroke-linejoin="round" stroke-miterlimit="10" fill="#00AA7D" fill-rule="evenodd"/></g></g><path d="M3659.68 2297.24C3664.05 2297.24 3667.76 2298.77 3670.81 2301.82 3673.37 2304.42 3674.65 2308.25 3674.65 2313.33L3674.65 2342.47 3663.71 2342.47 3663.71 2323.16C3663.71 2317.9 3663.47 2314.4 3663 2312.68 3662.53 2310.95 3661.71 2309.63 3660.53 2308.73 3659.36 2307.83 3657.91 2307.37 3656.19 2307.37 3653.95 2307.37 3652.03 2308.12 3650.43 2309.62 3648.82 2311.12 3647.71 2313.19 3647.09 2315.83 3646.77 2317.21 3646.61 2320.19 3646.61 2324.78L3646.61 2342.47 3635.54 2342.47 3635.54 2298.38 3646.61 2298.38 3646.61 2302.9C3649.11 2300.78 3651.39 2299.31 3653.42 2298.48 3655.46 2297.66 3657.55 2297.24 3659.68 2297.24ZM3610.68 2297.24C3615.05 2297.24 3618.76 2298.77 3621.81 2301.82 3624.37 2304.42 3625.65 2308.25 3625.65 2313.33L3625.65 2342.47 3614.71 2342.47 3614.71 2323.16C3614.71 2317.9 3614.47 2314.4 3614 2312.68 3613.53 2310.95 3612.71 2309.63 3611.53 2308.73 3610.36 2307.83 3608.91 2307.37 3607.19 2307.37 3604.95 2307.37 3603.03 2308.12 3601.43 2309.62 3599.82 2311.12 3598.71 2313.19 3598.09 2315.83 3597.77 2317.21 3597.61 2320.19 3597.61 2324.78L3597.61 2342.47 3586.54 2342.47 3586.54 2298.38 3597.61 2298.38 3597.61 2302.9C3600.11 2300.78 3602.39 2299.31 3604.42 2298.48 3606.46 2297.66 3608.55 2297.24 3610.68 2297.24Z" stroke="#FFFFFF" stroke-width="3" stroke-linejoin="round" stroke-miterlimit="10" fill="#00AA7D" fill-rule="evenodd"/><text fill="#000000" fill-opacity="0" font-family="Arial,Arial_MSFontService,sans-serif" font-size="45.2285" x="3586.54" y="2336.82">nn</text><g filter="url(#fx3)" transform="translate(3675 2289)"><g><path d="M36.7654 22.9885C33.6802 22.9885 30.974 23.8531 28.6466 25.5823 27.1851 26.663 25.8319 28.5678 24.5869 31.2966L48.5791 31.2966C47.8483 28.838 46.4072 26.8386 44.2557 25.2986 42.1041 23.7585 39.6074 22.9885 36.7654 22.9885ZM91.2851 13.6267C95.6621 13.6267 99.5933 14.4981 103.079 16.2407 106.564 17.9834 109.414 20.4623 111.63 23.6775L102.419 28.7434C100.688 26.9332 98.9771 25.6768 97.2864 24.9744 95.5956 24.2719 93.6142 23.9207 91.3421 23.9207 87.2033 23.9207 83.8558 25.1548 81.2996 27.6232 78.7434 30.0916 77.4653 33.2544 77.4653 37.1117 77.4653 40.8617 78.6961 43.9236 81.1577 46.2974 83.6194 48.6713 86.8518 49.8582 90.8552 49.8582 95.8058 49.8582 99.6606 48.1695 102.419 44.7922L111.144 50.7656C106.415 56.9152 99.7419 59.99 91.123 59.99 83.3688 59.99 77.2965 57.6934 72.906 53.1003 68.5155 48.5072 66.3203 43.1306 66.3203 36.9705 66.3203 32.7016 67.3875 28.7704 69.522 25.177 71.6564 21.5836 74.6352 18.7602 78.4582 16.7068 82.2813 14.6534 86.557 13.6267 91.2851 13.6267ZM36.2183 13.6267C43.1619 13.6267 48.8088 15.849 53.1587 20.2935 57.5086 24.738 59.6836 30.6077 59.6836 37.9026L59.6431 40.01 24.1006 40.01C24.6139 43.1441 25.9851 45.6366 28.2141 47.4873 30.4431 49.3381 33.2868 50.2634 36.7451 50.2634 40.8789 50.2634 44.4318 48.818 47.4038 45.927L56.7251 50.304C54.4015 53.6002 51.6186 56.0386 48.3765 57.6191 45.1343 59.1997 41.2842 59.99 36.8262 59.99 29.9095 59.99 24.2762 57.8083 19.9263 53.4448 15.5763 49.0814 13.4014 43.6169 13.4014 37.0515 13.4014 30.324 15.5696 24.738 19.906 20.2935 24.2424 15.849 29.6798 13.6267 36.2183 13.6267Z" stroke="#FFFFFF" stroke-width="3" stroke-linejoin="round" stroke-miterlimit="10" fill="#008CCD" fill-rule="evenodd"/></g></g><path d="M3706.38 2306.6C3703.3 2306.6 3700.59 2307.47 3698.26 2309.2 3696.8 2310.28 3695.45 2312.18 3694.2 2314.91L3718.19 2314.91C3717.46 2312.45 3716.02 2310.45 3713.87 2308.91 3711.72 2307.37 3709.22 2306.6 3706.38 2306.6ZM3760.9 2297.24C3765.28 2297.24 3769.21 2298.11 3772.69 2299.86 3776.18 2301.6 3779.03 2304.08 3781.25 2307.29L3772.03 2312.36C3770.3 2310.55 3768.59 2309.29 3766.9 2308.59 3765.21 2307.89 3763.23 2307.54 3760.96 2307.54 3756.82 2307.54 3753.47 2308.77 3750.92 2311.24 3748.36 2313.71 3747.08 2316.87 3747.08 2320.73 3747.08 2324.48 3748.31 2327.54 3750.77 2329.91 3753.23 2332.29 3756.47 2333.47 3760.47 2333.47 3765.42 2333.47 3769.28 2331.78 3772.03 2328.41L3780.76 2334.38C3776.03 2340.53 3769.36 2343.61 3760.74 2343.61 3752.98 2343.61 3746.91 2341.31 3742.52 2336.72 3738.13 2332.12 3735.94 2326.75 3735.94 2320.59 3735.94 2316.32 3737 2312.39 3739.14 2308.79 3741.27 2305.2 3744.25 2302.38 3748.07 2300.32 3751.9 2298.27 3756.17 2297.24 3760.9 2297.24ZM3705.83 2297.24C3712.78 2297.24 3718.42 2299.46 3722.77 2303.91 3727.12 2308.35 3729.3 2314.22 3729.3 2321.52L3729.26 2323.63 3693.72 2323.63C3694.23 2326.76 3695.6 2329.25 3697.83 2331.1 3700.06 2332.95 3702.9 2333.88 3706.36 2333.88 3710.49 2333.88 3714.05 2332.43 3717.02 2329.54L3726.34 2333.92C3724.02 2337.22 3721.23 2339.65 3717.99 2341.23 3714.75 2342.82 3710.9 2343.61 3706.44 2343.61 3699.52 2343.61 3693.89 2341.42 3689.54 2337.06 3685.19 2332.7 3683.02 2327.23 3683.02 2320.67 3683.02 2313.94 3685.19 2308.35 3689.52 2303.91 3693.86 2299.46 3699.3 2297.24 3705.83 2297.24Z" stroke="#FFFFFF" stroke-width="3" stroke-linejoin="round" stroke-miterlimit="10" fill="#008CCD" fill-rule="evenodd"/><text fill="#000000" fill-opacity="0" font-family="Arial,Arial_MSFontService,sans-serif" font-size="46.3633" x="3683.02" y="2337.81">ec</text><g filter="url(#fx4)" transform="translate(3778 2273)"><g><path d="M115.798 39.8396C112.378 39.8396 109.537 41.0487 107.275 43.4668 105.013 45.8849 103.882 48.9853 103.882 52.7678 103.882 56.5774 105.033 59.7115 107.335 62.1702 109.638 64.6288 112.472 65.8582 115.838 65.8582 119.312 65.8582 122.193 64.6491 124.482 62.231 126.77 59.8128 127.915 56.6449 127.915 52.7273 127.915 48.8907 126.77 45.7836 124.482 43.406 122.193 41.0284 119.298 39.8396 115.798 39.8396ZM64.1821 38.9885C61.097 38.9885 58.3907 39.8531 56.0634 41.5823 54.6018 42.663 53.2486 44.5678 52.0037 47.2966L75.9958 47.2966C75.2651 44.838 73.8239 42.8386 71.6724 41.2986 69.5209 39.7585 67.0241 38.9885 64.1821 38.9885ZM63.635 29.6267C70.5787 29.6267 76.2255 31.849 80.5754 36.2935 84.9254 40.738 87.1003 46.6077 87.1003 53.9026L87.0598 56.01 51.5173 56.01C52.0307 59.1441 53.4019 61.6366 55.6309 63.4873 57.8599 65.3381 60.7035 66.2634 64.1619 66.2634 68.2957 66.2634 71.8486 64.818 74.8206 61.927L84.1418 66.304C81.8183 69.6002 79.0354 72.0386 75.7932 73.6191 72.551 75.1997 68.7009 75.99 64.2429 75.99 57.3262 75.99 51.6929 73.8083 47.343 69.4448 42.9931 65.0814 40.8181 59.6169 40.8181 53.0515 40.8181 46.324 42.9863 40.738 47.3228 36.2935 51.6592 31.849 57.0966 29.6267 63.635 29.6267ZM19.2224 14.51 30.2864 14.51 30.2864 30.7615 36.8518 30.7615 36.8518 40.2854 30.2864 40.2854 30.2864 74.8552 19.2224 74.8552 19.2224 40.2854 13.5486 40.2854 13.5486 30.7615 19.2224 30.7615ZM127.428 13.74 138.492 13.74 138.492 74.8552 127.428 74.8552 127.428 70.1946C125.27 72.248 123.104 73.7272 120.931 74.6323 118.759 75.5374 116.404 75.99 113.868 75.99 108.174 75.99 103.249 73.7812 99.0926 69.3638 94.9366 64.9463 92.8586 59.4548 92.8586 52.8894 92.8586 46.0808 94.8692 40.5015 98.8903 36.1516 102.911 31.8017 107.796 29.6267 113.544 29.6267 116.188 29.6267 118.671 30.1266 120.992 31.1262 123.313 32.1259 125.458 33.6254 127.428 35.6248Z" stroke="#FFFFFF" stroke-width="3" stroke-linejoin="round" stroke-miterlimit="10" fill="#0042A1" fill-rule="evenodd"/></g></g><path d="M3888.41 2307.46C3884.99 2307.46 3882.15 2308.66 3879.89 2311.08 3877.63 2313.5 3876.5 2316.6 3876.5 2320.38 3876.5 2324.19 3877.65 2327.33 3879.95 2329.79 3882.25 2332.24 3885.09 2333.47 3888.45 2333.47 3891.93 2333.47 3894.81 2332.26 3897.1 2329.85 3899.39 2327.43 3900.53 2324.26 3900.53 2320.34 3900.53 2316.51 3899.39 2313.4 3897.1 2311.02 3894.81 2308.64 3891.91 2307.46 3888.41 2307.46ZM3836.8 2306.6C3833.71 2306.6 3831.01 2307.47 3828.68 2309.2 3827.22 2310.28 3825.86 2312.18 3824.62 2314.91L3848.61 2314.91C3847.88 2312.45 3846.44 2310.45 3844.29 2308.91 3842.14 2307.37 3839.64 2306.6 3836.8 2306.6ZM3836.25 2297.24C3843.19 2297.24 3848.84 2299.46 3853.19 2303.91 3857.54 2308.35 3859.72 2314.22 3859.72 2321.52L3859.68 2323.63 3824.13 2323.63C3824.65 2326.76 3826.02 2329.25 3828.25 2331.1 3830.48 2332.95 3833.32 2333.88 3836.78 2333.88 3840.91 2333.88 3844.46 2332.43 3847.44 2329.54L3856.76 2333.92C3854.43 2337.22 3851.65 2339.65 3848.41 2341.23 3845.17 2342.82 3841.32 2343.61 3836.86 2343.61 3829.94 2343.61 3824.31 2341.42 3819.96 2337.06 3815.61 2332.7 3813.43 2327.23 3813.43 2320.67 3813.43 2313.94 3815.6 2308.35 3819.94 2303.91 3824.27 2299.46 3829.71 2297.24 3836.25 2297.24ZM3791.84 2282.13 3802.9 2282.13 3802.9 2298.38 3809.47 2298.38 3809.47 2307.9 3802.9 2307.9 3802.9 2342.47 3791.84 2342.47 3791.84 2307.9 3786.16 2307.9 3786.16 2298.38 3791.84 2298.38ZM3900.04 2281.36 3911.11 2281.36 3911.11 2342.47 3900.04 2342.47 3900.04 2337.81C3897.89 2339.86 3895.72 2341.34 3893.55 2342.25 3891.37 2343.15 3889.02 2343.61 3886.48 2343.61 3880.79 2343.61 3875.86 2341.4 3871.71 2336.98 3867.55 2332.56 3865.47 2327.07 3865.47 2320.5 3865.47 2313.7 3867.48 2308.12 3871.51 2303.77 3875.53 2299.42 3880.41 2297.24 3886.16 2297.24 3888.8 2297.24 3891.29 2297.74 3893.61 2298.74 3895.93 2299.74 3898.07 2301.24 3900.04 2303.24Z" stroke="#FFFFFF" stroke-width="3" stroke-linejoin="round" stroke-miterlimit="10" fill="#0042A1" fill-rule="evenodd"/><text fill="#000000" fill-opacity="0" font-family="Arial,Arial_MSFontService,sans-serif" font-size="62.25" x="3786.16" y="2335.82">ted</text><g filter="url(#fx5)" transform="translate(3479 2332)"><g><path d="M23.2312 13.5364C25.0974 13.5364 26.6287 13.6082 27.8249 13.7517 29.0212 13.8953 29.9783 14.0867 30.696 14.3259 31.4138 14.5652 31.9282 14.8762 32.2393 15.259 32.5503 15.6419 32.7058 16.0725 32.7058 16.551L32.7058 104.263C32.7058 104.741 32.5503 105.172 32.2393 105.555 31.9282 105.938 31.4138 106.249 30.696 106.488 29.9783 106.727 29.0212 106.919 27.8249 107.062 26.6287 107.206 25.0974 107.278 23.2312 107.278 21.4128 107.278 19.8936 107.206 18.6733 107.062 17.4531 106.919 16.4841 106.727 15.7664 106.488 15.0486 106.249 14.5342 105.938 14.2231 105.555 13.9121 105.172 13.7566 104.741 13.7566 104.263L13.7566 16.551C13.7566 16.0725 13.9121 15.6419 14.2231 15.259 14.5342 14.8762 15.0605 14.5652 15.8022 14.3259 16.5439 14.0867 17.5129 13.8953 18.7092 13.7517 19.9055 13.6082 21.4128 13.5364 23.2312 13.5364Z" stroke="#FFFFFF" stroke-width="3" stroke-linejoin="round" stroke-miterlimit="10" fill="#8AC452" fill-rule="evenodd"/></g></g><path d="M3496.85 2340.15C3498.71 2340.15 3500.24 2340.22 3501.44 2340.37 3502.64 2340.51 3503.59 2340.7 3504.31 2340.94 3505.03 2341.18 3505.54 2341.49 3505.85 2341.87 3506.17 2342.26 3506.32 2342.69 3506.32 2343.17L3506.32 2430.88C3506.32 2431.36 3506.17 2431.79 3505.85 2432.17 3505.54 2432.55 3505.03 2432.86 3504.31 2433.1 3503.59 2433.34 3502.64 2433.53 3501.44 2433.68 3500.24 2433.82 3498.71 2433.89 3496.85 2433.89 3495.03 2433.89 3493.51 2433.82 3492.29 2433.68 3491.07 2433.53 3490.1 2433.34 3489.38 2433.1 3488.66 2432.86 3488.15 2432.55 3487.84 2432.17 3487.53 2431.79 3487.37 2431.36 3487.37 2430.88L3487.37 2343.17C3487.37 2342.69 3487.53 2342.26 3487.84 2341.87 3488.15 2341.49 3488.68 2341.18 3489.42 2340.94 3490.16 2340.7 3491.13 2340.51 3492.32 2340.37 3493.52 2340.22 3495.03 2340.15 3496.85 2340.15Z" stroke="#FFFFFF" stroke-width="3" stroke-linejoin="round" stroke-miterlimit="10" fill="#8AC452" fill-rule="evenodd"/><text fill="#000000" fill-opacity="0" font-family="Arial,Arial_MSFontService,sans-serif" font-size="93.7412" x="3487.37" y="2422.18">I</text><g filter="url(#fx6)" transform="translate(3515 2373)"><g><path d="M41.5601 13.0491C44.8185 13.0491 47.5667 13.5862 49.8047 14.6604 52.0426 15.7346 53.8509 17.1938 55.2295 19.0378 56.6081 20.8819 57.6017 23.0393 58.2104 25.51 58.8192 27.9807 59.1235 30.9527 59.1235 34.426L59.1235 64.0208C59.1235 64.3788 59.0161 64.6921 58.8013 64.9607 58.5864 65.2292 58.2283 65.453 57.727 65.6321 57.2257 65.8111 56.5365 65.9454 55.6592 66.0349 54.7819 66.1244 53.6987 66.1692 52.4097 66.1692 51.0848 66.1692 49.9837 66.1244 49.1064 66.0349 48.2292 65.9454 47.5399 65.8111 47.0386 65.6321 46.5373 65.453 46.1792 65.2292 45.9644 64.9607 45.7495 64.6921 45.6421 64.3788 45.6421 64.0208L45.6421 36.6819C45.6421 34.3544 45.472 32.5282 45.1318 31.2034 44.7917 29.8785 44.2993 28.7416 43.6548 27.7927 43.0103 26.8438 42.1777 26.1098 41.1572 25.5906 40.1367 25.0714 38.9461 24.8118 37.5854 24.8118 35.8667 24.8118 34.13 25.4384 32.3755 26.6917 30.6209 27.9449 28.7948 29.7711 26.897 32.1702L26.897 64.0208C26.897 64.3788 26.7895 64.6921 26.5747 64.9607 26.3599 65.2292 25.9928 65.453 25.4736 65.6321 24.9544 65.8111 24.2651 65.9454 23.4058 66.0349 22.5464 66.1244 21.4543 66.1692 20.1294 66.1692 18.8045 66.1692 17.7124 66.1244 16.853 66.0349 15.9937 65.9454 15.3044 65.8111 14.7852 65.6321 14.266 65.453 13.8989 65.2292 13.6841 64.9607 13.4692 64.6921 13.3618 64.3788 13.3618 64.0208L13.3618 16.1106C13.3618 15.7525 13.4513 15.4392 13.6304 15.1707 13.8094 14.9021 14.1317 14.6783 14.5972 14.4993 15.0627 14.3202 15.6624 14.186 16.3965 14.0964 17.1305 14.0069 18.0526 13.9622 19.1626 13.9622 20.3084 13.9622 21.2573 14.0069 22.0093 14.0964 22.7612 14.186 23.3431 14.3202 23.7549 14.4993 24.1667 14.6783 24.4621 14.9021 24.6411 15.1707 24.8201 15.4392 24.9097 15.7525 24.9097 16.1106L24.9097 21.6428C27.5594 18.7782 30.2539 16.6298 32.9932 15.1975 35.7324 13.7652 38.5881 13.0491 41.5601 13.0491Z" stroke="#FFFFFF" stroke-width="3" stroke-linejoin="round" stroke-miterlimit="10" fill="#8AC452" fill-rule="evenodd"/></g></g><path d="M3551.18 2380.66C3554.43 2380.66 3557.18 2381.2 3559.42 2382.28 3561.66 2383.35 3563.47 2384.81 3564.84 2386.65 3566.22 2388.5 3567.22 2390.65 3567.83 2393.13 3568.43 2395.6 3568.74 2398.57 3568.74 2402.04L3568.74 2431.64C3568.74 2431.99 3568.63 2432.31 3568.42 2432.58 3568.2 2432.84 3567.84 2433.07 3567.34 2433.25 3566.84 2433.43 3566.15 2433.56 3565.27 2433.65 3564.4 2433.74 3563.31 2433.78 3562.03 2433.78 3560.7 2433.78 3559.6 2433.74 3558.72 2433.65 3557.84 2433.56 3557.16 2433.43 3556.65 2433.25 3556.15 2433.07 3555.79 2432.84 3555.58 2432.58 3555.36 2432.31 3555.26 2431.99 3555.26 2431.64L3555.26 2404.3C3555.26 2401.97 3555.09 2400.14 3554.75 2398.82 3554.41 2397.49 3553.91 2396.36 3553.27 2395.41 3552.63 2394.46 3551.79 2393.73 3550.77 2393.21 3549.75 2392.69 3548.56 2392.43 3547.2 2392.43 3545.48 2392.43 3543.75 2393.05 3541.99 2394.31 3540.24 2395.56 3538.41 2397.39 3536.51 2399.79L3536.51 2431.64C3536.51 2431.99 3536.41 2432.31 3536.19 2432.58 3535.98 2432.84 3535.61 2433.07 3535.09 2433.25 3534.57 2433.43 3533.88 2433.56 3533.02 2433.65 3532.16 2433.74 3531.07 2433.78 3529.74 2433.78 3528.42 2433.78 3527.33 2433.74 3526.47 2433.65 3525.61 2433.56 3524.92 2433.43 3524.4 2433.25 3523.88 2433.07 3523.51 2432.84 3523.3 2432.58 3523.08 2432.31 3522.98 2431.99 3522.98 2431.64L3522.98 2383.73C3522.98 2383.37 3523.07 2383.05 3523.25 2382.79 3523.42 2382.52 3523.75 2382.29 3524.21 2382.11 3524.68 2381.94 3525.28 2381.8 3526.01 2381.71 3526.75 2381.62 3527.67 2381.58 3528.78 2381.58 3529.92 2381.58 3530.87 2381.62 3531.62 2381.71 3532.38 2381.8 3532.96 2381.94 3533.37 2382.11 3533.78 2382.29 3534.08 2382.52 3534.26 2382.79 3534.44 2383.05 3534.53 2383.37 3534.53 2383.73L3534.53 2389.26C3537.17 2386.39 3539.87 2384.25 3542.61 2382.81 3545.35 2381.38 3548.2 2380.66 3551.18 2380.66Z" stroke="#FFFFFF" stroke-width="3" stroke-linejoin="round" stroke-miterlimit="10" fill="#8AC452" fill-rule="evenodd"/><text fill="#000000" fill-opacity="0" font-family="Arial,Arial_MSFontService,sans-serif" font-size="53.1201" x="3522.98" y="2427.14">n</text><g filter="url(#fx7)" transform="translate(3568 2364)"><g><path d="M64.4946 38.9802C61.4095 38.9802 58.7032 39.8448 56.3759 41.574 54.9143 42.6547 53.5611 44.5595 52.3162 47.2883L76.3083 47.2883C75.5776 44.8297 74.1364 42.8303 71.9849 41.2903 69.8334 39.7502 67.3366 38.9802 64.4946 38.9802ZM63.9475 29.6184C70.8912 29.6184 76.538 31.8407 80.8879 36.2852 85.2379 40.7297 87.4128 46.5994 87.4128 53.8943L87.3723 56.0017 51.8298 56.0017C52.3432 59.1358 53.7144 61.6283 55.9434 63.479 58.1724 65.3298 61.016 66.2551 64.4744 66.2551 68.6082 66.2551 72.161 64.8097 75.1331 61.9187L84.4543 66.2957C82.1308 69.5919 79.3479 72.0303 76.1057 73.6108 72.8635 75.1914 69.0134 75.9817 64.5554 75.9817 57.6387 75.9817 52.0054 73.8 47.6555 69.4365 43.3056 65.0731 41.1306 59.6086 41.1306 53.0432 41.1306 46.3157 43.2988 40.7297 47.6353 36.2852 51.9717 31.8407 57.4091 29.6184 63.9475 29.6184ZM19.5349 14.5017 30.5989 14.5017 30.5989 30.7532 37.1643 30.7532 37.1643 40.2771 30.5989 40.2771 30.5989 74.8469 19.5349 74.8469 19.5349 40.2771 13.8611 40.2771 13.8611 30.7532 19.5349 30.7532ZM93.9817 13.7317 105.046 13.7317 105.046 74.8469 93.9817 74.8469Z" stroke="#FFFFFF" stroke-width="3" stroke-linejoin="round" stroke-miterlimit="10" fill="#00AA7D" fill-rule="evenodd"/></g></g><path d="M3627.11 2397.6C3624.02 2397.6 3621.32 2398.46 3618.99 2400.19 3617.53 2401.27 3616.18 2403.18 3614.93 2405.9L3638.92 2405.9C3638.19 2403.45 3636.75 2401.45 3634.6 2399.91 3632.45 2398.37 3629.95 2397.6 3627.11 2397.6ZM3626.56 2388.23C3633.51 2388.23 3639.15 2390.46 3643.5 2394.9 3647.85 2399.35 3650.03 2405.21 3650.03 2412.51L3649.99 2414.62 3614.45 2414.62C3614.96 2417.75 3616.33 2420.24 3618.56 2422.09 3620.79 2423.95 3623.63 2424.87 3627.09 2424.87 3631.22 2424.87 3634.78 2423.43 3637.75 2420.53L3647.07 2424.91C3644.75 2428.21 3641.96 2430.65 3638.72 2432.23 3635.48 2433.81 3631.63 2434.6 3627.17 2434.6 3620.25 2434.6 3614.62 2432.42 3610.27 2428.05 3605.92 2423.69 3603.75 2418.22 3603.75 2411.66 3603.75 2404.93 3605.91 2399.35 3610.25 2394.9 3614.59 2390.46 3620.02 2388.23 3626.56 2388.23ZM3582.15 2373.12 3593.21 2373.12 3593.21 2389.37 3599.78 2389.37 3599.78 2398.89 3593.21 2398.89 3593.21 2433.46 3582.15 2433.46 3582.15 2398.89 3576.48 2398.89 3576.48 2389.37 3582.15 2389.37ZM3656.6 2372.35 3667.66 2372.35 3667.66 2433.46 3656.6 2433.46Z" stroke="#FFFFFF" stroke-width="3" stroke-linejoin="round" stroke-miterlimit="10" fill="#00AA7D" fill-rule="evenodd"/><text fill="#000000" fill-opacity="0" font-family="Arial,Arial_MSFontService,sans-serif" font-size="62.25" x="3576.48" y="2426.82">tel</text><g filter="url(#fx8)" transform="translate(3669 2363)"><g><path d="M75.708 40.9529C72.2227 40.9529 69.3452 42.1214 67.0757 44.4585 64.8062 46.7956 63.6714 49.7338 63.6714 53.2732 63.6714 56.9477 64.8332 59.9602 67.1567 62.3108 69.4803 64.6614 72.3983 65.8367 75.9106 65.8367 79.342 65.8367 82.1721 64.6884 84.4011 62.3918 86.6301 60.0953 87.7446 57.0828 87.7446 53.3542 87.7446 49.6798 86.6234 46.6943 84.3809 44.3977 82.1383 42.1012 79.2474 40.9529 75.708 40.9529ZM130.89 39.9802C127.805 39.9802 125.099 40.8448 122.772 42.574 121.31 43.6547 119.957 45.5595 118.712 48.2883L142.704 48.2883C141.973 45.8297 140.532 43.8303 138.381 42.2903 136.229 40.7502 133.732 39.9802 130.89 39.9802ZM33.3774 31.7532 44.4414 31.7532 44.4414 75.8469 33.3774 75.8469ZM130.343 30.6184C137.287 30.6184 142.934 32.8407 147.284 37.2852 151.634 41.7297 153.809 47.5994 153.809 54.8943L153.768 57.0017 118.226 57.0017C118.739 60.1358 120.11 62.6283 122.339 64.479 124.568 66.3298 127.412 67.2551 130.87 67.2551 135.004 67.2551 138.557 65.8097 141.529 62.9187L150.85 67.2957C148.527 70.5919 145.744 73.0303 142.501 74.6108 139.259 76.1914 135.409 76.9817 130.951 76.9817 124.034 76.9817 118.401 74.8 114.051 70.4365 109.701 66.0731 107.526 60.6086 107.526 54.0432 107.526 47.3157 109.695 41.7297 114.031 37.2852 118.367 32.8407 123.805 30.6184 130.343 30.6184ZM73.1953 30.6184C75.735 30.6184 78.1329 31.0845 80.3889 32.0166 82.6449 32.9487 84.9077 34.482 87.1772 36.6165L87.1772 31.7532 98.2007 31.7532 98.2007 69.5247C98.2007 76.9817 96.7012 82.4664 93.7021 85.9788 89.6764 90.734 83.6108 93.1116 75.5054 93.1116 71.1824 93.1116 67.5485 92.5712 64.6035 91.4905 61.6585 90.4098 59.1729 88.8224 57.1465 86.7285 55.1201 84.6346 53.6206 82.0881 52.6479 79.0891L64.8467 79.0891C65.9274 80.3319 67.3188 81.2708 69.021 81.9058 70.7231 82.5407 72.736 82.8582 75.0596 82.8582 78.0316 82.8582 80.4227 82.3988 82.2329 81.4802 84.0431 80.5616 85.3197 79.3728 86.0627 77.9138 86.8057 76.4548 87.1772 73.9421 87.1772 70.3757 85.2319 72.321 83.1921 73.7192 81.0576 74.5703 78.9232 75.4214 76.505 75.8469 73.8032 75.8469 67.8862 75.8469 62.8879 73.7125 58.8081 69.4436 54.7283 65.1747 52.6885 59.7711 52.6885 53.2327 52.6885 46.2349 54.8499 40.6152 59.1729 36.3733 63.0905 32.5367 67.7646 30.6184 73.1953 30.6184ZM13.3774 14.7317 24.4414 14.7317 24.4414 75.8469 13.3774 75.8469ZM38.9094 13.5969C40.8493 13.5969 42.5129 14.2994 43.9003 15.7043 45.2877 17.1093 45.9814 18.8114 45.9814 20.8108 45.9814 22.7831 45.2945 24.465 43.9206 25.8564 42.5466 27.2479 40.9033 27.9436 38.9905 27.9436 37.0236 27.9436 35.3465 27.2344 33.9591 25.8159 32.5716 24.3975 31.8779 22.6751 31.8779 20.6487 31.8779 18.7034 32.5649 17.0418 33.9388 15.6638 35.3127 14.2859 36.9696 13.5969 38.9094 13.5969Z" stroke="#FFFFFF" stroke-width="3" stroke-linejoin="round" stroke-miterlimit="10" fill="#008CCD" fill-rule="evenodd"/></g></g><path d="M3739.32 2398.57C3735.84 2398.57 3732.96 2399.74 3730.69 2402.07 3728.42 2404.41 3727.29 2407.35 3727.29 2410.89 3727.29 2414.56 3728.45 2417.58 3730.77 2419.93 3733.1 2422.28 3736.01 2423.45 3739.53 2423.45 3742.96 2423.45 3745.79 2422.3 3748.02 2420.01 3750.25 2417.71 3751.36 2414.7 3751.36 2410.97 3751.36 2407.3 3750.24 2404.31 3748 2402.01 3745.75 2399.72 3742.86 2398.57 3739.32 2398.57ZM3794.51 2397.6C3791.42 2397.6 3788.71 2398.46 3786.39 2400.19 3784.93 2401.27 3783.57 2403.18 3782.33 2405.9L3806.32 2405.9C3805.59 2403.45 3804.15 2401.45 3802 2399.91 3799.84 2398.37 3797.35 2397.6 3794.51 2397.6ZM3696.99 2389.37 3708.06 2389.37 3708.06 2433.46 3696.99 2433.46ZM3793.96 2388.23C3800.9 2388.23 3806.55 2390.46 3810.9 2394.9 3815.25 2399.35 3817.42 2405.21 3817.42 2412.51L3817.38 2414.62 3781.84 2414.62C3782.35 2417.75 3783.73 2420.24 3785.95 2422.09 3788.18 2423.95 3791.03 2424.87 3794.49 2424.87 3798.62 2424.87 3802.17 2423.43 3805.14 2420.53L3814.47 2424.91C3812.14 2428.21 3809.36 2430.65 3806.12 2432.23 3802.87 2433.81 3799.02 2434.6 3794.57 2434.6 3787.65 2434.6 3782.02 2432.42 3777.67 2428.05 3773.32 2423.69 3771.14 2418.22 3771.14 2411.66 3771.14 2404.93 3773.31 2399.35 3777.65 2394.9 3781.98 2390.46 3787.42 2388.23 3793.96 2388.23ZM3736.81 2388.23C3739.35 2388.23 3741.75 2388.7 3744 2389.63 3746.26 2390.56 3748.52 2392.1 3750.79 2394.23L3750.79 2389.37 3761.82 2389.37 3761.82 2427.14C3761.82 2434.6 3760.32 2440.08 3757.32 2443.59 3753.29 2448.35 3747.23 2450.73 3739.12 2450.73 3734.8 2450.73 3731.16 2450.19 3728.22 2449.11 3725.27 2448.03 3722.79 2446.44 3720.76 2444.34 3718.74 2442.25 3717.24 2439.7 3716.26 2436.7L3728.46 2436.7C3729.54 2437.95 3730.93 2438.89 3732.64 2439.52 3734.34 2440.16 3736.35 2440.47 3738.68 2440.47 3741.65 2440.47 3744.04 2440.01 3745.85 2439.1 3747.66 2438.18 3748.94 2436.99 3749.68 2435.53 3750.42 2434.07 3750.79 2431.56 3750.79 2427.99 3748.85 2429.94 3746.81 2431.33 3744.67 2432.19 3742.54 2433.04 3740.12 2433.46 3737.42 2433.46 3731.5 2433.46 3726.5 2431.33 3722.42 2427.06 3718.34 2422.79 3716.3 2417.39 3716.3 2410.85 3716.3 2403.85 3718.47 2398.23 3722.79 2393.99 3726.71 2390.15 3731.38 2388.23 3736.81 2388.23ZM3676.99 2372.35 3688.06 2372.35 3688.06 2433.46 3676.99 2433.46ZM3702.52 2371.21C3704.46 2371.21 3706.13 2371.91 3707.52 2373.32 3708.9 2374.72 3709.6 2376.43 3709.6 2378.43 3709.6 2380.4 3708.91 2382.08 3707.54 2383.47 3706.16 2384.86 3704.52 2385.56 3702.61 2385.56 3700.64 2385.56 3698.96 2384.85 3697.57 2383.43 3696.19 2382.01 3695.49 2380.29 3695.49 2378.26 3695.49 2376.32 3696.18 2374.66 3697.55 2373.28 3698.93 2371.9 3700.58 2371.21 3702.52 2371.21Z" stroke="#FFFFFF" stroke-width="3" stroke-linejoin="round" stroke-miterlimit="10" fill="#008CCD" fill-rule="evenodd"/><text fill="#000000" fill-opacity="0" font-family="Arial,Arial_MSFontService,sans-serif" font-size="79.5146" x="3676.99" y="2440.79">lige</text><g filter="url(#fx9)" transform="translate(3817 2380)"><g><path d="M137.13 22.9802C134.045 22.9802 131.338 23.8448 129.011 25.574 127.55 26.6547 126.196 28.5595 124.951 31.2883L148.944 31.2883C148.213 28.8297 146.772 26.8303 144.62 25.2903 142.469 23.7502 139.972 22.9802 137.13 22.9802ZM136.583 13.6184C143.526 13.6184 149.173 15.8407 153.523 20.2852 157.873 24.7297 160.048 30.5994 160.048 37.8943L160.008 40.0017 124.465 40.0017C124.978 43.1358 126.35 45.6283 128.579 47.479 130.808 49.3298 133.651 50.2551 137.11 50.2551 141.243 50.2551 144.796 48.8097 147.768 45.9187L157.09 50.2957C154.766 53.5919 151.983 56.0303 148.741 57.6108 145.499 59.1914 141.649 59.9817 137.191 59.9817 130.274 59.9817 124.641 57.8 120.291 53.4365 115.941 49.0731 113.766 43.6086 113.766 37.0432 113.766 30.3157 115.934 24.7297 120.271 20.2852 124.607 15.8407 130.044 13.6184 136.583 13.6184ZM85.6497 13.6184C90.0266 13.6184 93.9578 14.4897 97.4431 16.2324 100.928 17.9751 103.779 20.454 105.994 23.6692L96.7839 28.7351C95.0526 26.9249 93.3416 25.6685 91.6509 24.9661 89.9601 24.2636 87.9787 23.9124 85.7066 23.9124 81.5678 23.9124 78.2203 25.1465 75.6641 27.6149 73.1079 30.0833 71.8298 33.2461 71.8298 37.1034 71.8298 40.8534 73.0606 43.9153 75.5222 46.2891 77.9839 48.663 81.2163 49.8499 85.2197 49.8499 90.1703 49.8499 94.0251 48.1612 96.7839 44.7839L105.508 50.7573C100.78 56.9069 94.1064 59.9817 85.4875 59.9817 77.7333 59.9817 71.661 57.6851 67.2705 53.092 62.88 48.4989 60.6848 43.1223 60.6848 36.9622 60.6848 32.6933 61.752 28.7621 63.8865 25.1687 66.0209 21.5753 68.9997 18.7519 72.8227 16.6985 76.6458 14.6451 80.9215 13.6184 85.6497 13.6184ZM37.9681 13.6184C42.3387 13.6184 46.0484 15.1449 49.0973 18.198 51.6602 20.7918 52.9416 24.6283 52.9416 29.7078L52.9416 58.8469 41.9993 58.8469 41.9993 39.5375C41.9993 34.2753 41.7634 30.7806 41.2916 29.0533 40.8199 27.326 39.9977 26.0104 38.8252 25.1063 37.6526 24.2023 36.2039 23.7502 34.4789 23.7502 32.2419 23.7502 30.3215 24.4992 28.7177 25.997 27.1139 27.4948 26.0019 29.5661 25.3818 32.211 25.0584 33.5872 24.8967 36.5691 24.8967 41.1567L24.8967 58.8469 13.8328 58.8469 13.8328 14.7532 24.8967 14.7532 24.8967 19.272C27.4056 17.157 29.6785 15.6859 31.7155 14.8589 33.7524 14.0319 35.8366 13.6184 37.9681 13.6184Z" stroke="#FFFFFF" stroke-width="3" stroke-linejoin="round" stroke-miterlimit="10" fill="#0042A1" fill-rule="evenodd"/></g></g><path d="M3948.75 2397.6C3945.66 2397.6 3942.95 2398.46 3940.63 2400.19 3939.17 2401.27 3937.81 2403.18 3936.57 2405.9L3960.56 2405.9C3959.83 2403.45 3958.39 2401.45 3956.24 2399.91 3954.08 2398.37 3951.59 2397.6 3948.75 2397.6ZM3948.2 2388.23C3955.14 2388.23 3960.79 2390.46 3965.14 2394.9 3969.49 2399.35 3971.66 2405.21 3971.66 2412.51L3971.62 2414.62 3936.08 2414.62C3936.59 2417.75 3937.97 2420.24 3940.19 2422.09 3942.42 2423.95 3945.27 2424.87 3948.73 2424.87 3952.86 2424.87 3956.41 2423.43 3959.38 2420.53L3968.71 2424.91C3966.38 2428.21 3963.6 2430.65 3960.36 2432.23 3957.11 2433.81 3953.26 2434.6 3948.81 2434.6 3941.89 2434.6 3936.26 2432.42 3931.91 2428.05 3927.56 2423.69 3925.38 2418.22 3925.38 2411.66 3925.38 2404.93 3927.55 2399.35 3931.89 2394.9 3936.22 2390.46 3941.66 2388.23 3948.2 2388.23ZM3897.27 2388.23C3901.64 2388.23 3905.57 2389.11 3909.06 2390.85 3912.54 2392.59 3915.39 2395.07 3917.61 2398.28L3908.4 2403.35C3906.67 2401.54 3904.96 2400.28 3903.27 2399.58 3901.58 2398.88 3899.59 2398.53 3897.32 2398.53 3893.18 2398.53 3889.84 2399.76 3887.28 2402.23 3884.72 2404.7 3883.45 2407.86 3883.45 2411.72 3883.45 2415.47 3884.68 2418.53 3887.14 2420.9 3889.6 2423.28 3892.83 2424.47 3896.84 2424.47 3901.79 2424.47 3905.64 2422.78 3908.4 2419.4L3917.12 2425.37C3912.4 2431.52 3905.72 2434.6 3897.1 2434.6 3889.35 2434.6 3883.28 2432.3 3878.89 2427.71 3874.5 2423.11 3872.3 2417.74 3872.3 2411.58 3872.3 2407.31 3873.37 2403.38 3875.5 2399.78 3877.64 2396.19 3880.62 2393.37 3884.44 2391.31 3888.26 2389.26 3892.54 2388.23 3897.27 2388.23ZM3849.58 2388.23C3853.95 2388.23 3857.66 2389.76 3860.71 2392.81 3863.28 2395.41 3864.56 2399.24 3864.56 2404.32L3864.56 2433.46 3853.61 2433.46 3853.61 2414.15C3853.61 2408.89 3853.38 2405.4 3852.91 2403.67 3852.44 2401.94 3851.61 2400.63 3850.44 2399.72 3849.27 2398.82 3847.82 2398.37 3846.09 2398.37 3843.86 2398.37 3841.94 2399.11 3840.33 2400.61 3838.73 2402.11 3837.62 2404.18 3837 2406.83 3836.67 2408.2 3836.51 2411.18 3836.51 2415.77L3836.51 2433.46 3825.45 2433.46 3825.45 2389.37 3836.51 2389.37 3836.51 2393.89C3839.02 2391.77 3841.29 2390.3 3843.33 2389.47 3845.37 2388.65 3847.45 2388.23 3849.58 2388.23Z" stroke="#FFFFFF" stroke-width="3" stroke-linejoin="round" stroke-miterlimit="10" fill="#0042A1" fill-rule="evenodd"/><text fill="#000000" fill-opacity="0" font-family="Arial,Arial_MSFontService,sans-serif" font-size="46.3633" x="3825.45" y="2428.8">nce</text><g filter="url(#fx10)" transform="translate(4002 2282)"><g><path d="M269.785 95.1111 269.785 134.642 290.195 134.642C294.134 134.642 297.446 134.231 300.131 133.407 302.817 132.583 305.144 131.366 307.114 129.755 309.083 128.143 310.623 126.138 311.733 123.739 312.843 121.34 313.398 118.601 313.398 115.521 313.398 112.299 312.861 109.416 311.787 106.874 310.712 104.331 309.137 102.201 307.06 100.482 304.983 98.7634 302.333 97.4386 299.111 96.5076 295.888 95.5766 291.699 95.1111 286.542 95.1111ZM159.021 43.7634 139.363 102.845 178.787 102.845 159.128 43.7634ZM269.785 38.3923 269.785 74.4861 285.576 74.4861C289.658 74.4861 292.916 74.0027 295.351 73.0359 297.786 72.0691 299.809 70.7442 301.42 69.0613 303.032 67.3783 304.231 65.4089 305.019 63.1531 305.807 60.8972 306.201 58.516 306.201 56.0095 306.201 53.2166 305.771 50.7101 304.912 48.49 304.052 46.2699 302.763 44.4259 301.044 42.9578 299.326 41.4897 297.159 40.3617 294.545 39.574 291.931 38.7862 288.44 38.3923 284.072 38.3923ZM250.449 17.2302 285.361 17.2302C293.883 17.2302 301.098 17.9464 307.006 19.3787 312.915 20.811 317.892 22.9773 321.938 25.8777 325.984 28.7781 329.082 32.4483 331.23 36.8884 333.378 41.3285 334.453 46.5564 334.453 52.572 334.453 55.9379 334.023 59.1069 333.164 62.0789 332.304 65.0509 331.051 67.7543 329.404 70.1892 327.757 72.6241 325.734 74.7726 323.334 76.6345 320.935 78.4965 318.196 80.0004 315.117 81.1462 319.055 81.8624 322.69 83.1156 326.02 84.906 329.35 86.6964 332.25 89.006 334.721 91.8347 337.192 94.6635 339.143 97.9757 340.576 101.771 342.008 105.567 342.724 109.828 342.724 114.554 342.724 119.496 342.044 123.972 340.683 127.982 339.322 131.993 337.443 135.538 335.043 138.617 332.644 141.696 329.78 144.346 326.45 146.566 323.12 148.786 319.449 150.612 315.439 152.045 311.429 153.477 307.15 154.533 302.602 155.214 298.055 155.894 292.988 156.234 287.402 156.234L250.449 156.234C248.085 156.234 246.098 155.536 244.487 154.139 242.875 152.743 242.07 150.469 242.07 147.318L242.07 26.1463C242.07 22.9952 242.875 20.7215 244.487 19.325 246.098 17.9285 248.085 17.2302 250.449 17.2302ZM159.451 16.5857C163.676 16.5857 167.042 16.6394 169.548 16.7468 172.055 16.8543 174.006 17.1049 175.403 17.4988 176.799 17.8927 177.802 18.4835 178.411 19.2713 179.019 20.059 179.539 21.1332 179.968 22.4939L222.937 145.707C223.796 148.285 224.333 150.326 224.548 151.83 224.763 153.334 224.477 154.462 223.689 155.214 222.901 155.966 221.505 156.431 219.499 156.61 217.494 156.789 214.737 156.879 211.228 156.879 207.576 156.879 204.729 156.825 202.688 156.718 200.647 156.61 199.089 156.395 198.015 156.073 196.941 155.751 196.189 155.303 195.759 154.73 195.33 154.157 194.971 153.405 194.685 152.474L185.339 124.545 133.132 124.545 124.324 151.722C124.037 152.725 123.661 153.566 123.196 154.247 122.73 154.927 121.978 155.464 120.94 155.858 119.902 156.252 118.433 156.521 116.536 156.664 114.638 156.807 112.149 156.879 109.07 156.879 105.776 156.879 103.197 156.771 101.335 156.556 99.4735 156.342 98.1844 155.822 97.4683 154.999 96.7521 154.175 96.5015 153.011 96.7163 151.508 96.9311 150.004 97.4683 147.998 98.3276 145.492L141.189 22.1716C141.619 20.9542 142.12 19.9695 142.693 19.2175 143.266 18.4656 144.179 17.8927 145.432 17.4988 146.685 17.1049 148.422 16.8543 150.642 16.7468 152.862 16.6394 155.798 16.5857 159.451 16.5857ZM30.2495 16.5857C33.0425 16.5857 35.3341 16.6931 37.1245 16.908 38.9149 17.1228 40.3472 17.4093 41.4214 17.7673 42.4956 18.1254 43.2655 18.5909 43.731 19.1638 44.1965 19.7368 44.4292 20.3813 44.4292 21.0974L44.4292 132.924 88.1499 132.924C88.8661 132.924 89.4927 133.121 90.0298 133.514 90.5669 133.908 91.0145 134.553 91.3726 135.448 91.7306 136.343 91.9992 137.525 92.1782 138.993 92.3573 140.461 92.4468 142.269 92.4468 144.418 92.4468 146.566 92.3573 148.374 92.1782 149.843 91.9992 151.311 91.7306 152.528 91.3726 153.495 91.0145 154.462 90.5669 155.16 90.0298 155.59 89.4927 156.019 88.8661 156.234 88.1499 156.234L24.4487 156.234C22.0855 156.234 20.0981 155.536 18.4868 154.139 16.8755 152.743 16.0698 150.469 16.0698 147.318L16.0698 21.0974C16.0698 20.3813 16.3026 19.7368 16.7681 19.1638 17.2336 18.5909 18.0034 18.1254 19.0776 17.7673 20.1519 17.4093 21.6021 17.1228 23.4282 16.908 25.2544 16.6931 27.5282 16.5857 30.2495 16.5857Z" stroke="#FFFFFF" stroke-width="3" stroke-linejoin="round" stroke-miterlimit="10" fill="#0042A1" fill-rule="evenodd"/></g></g><path d="M4264.71 2370.04 4264.71 2409.57 4285.12 2409.57C4289.06 2409.57 4292.38 2409.16 4295.06 2408.34 4297.75 2407.51 4300.07 2406.3 4302.04 2404.68 4304.01 2403.07 4305.55 2401.07 4306.66 2398.67 4307.77 2396.27 4308.33 2393.53 4308.33 2390.45 4308.33 2387.23 4307.79 2384.35 4306.72 2381.8 4305.64 2379.26 4304.07 2377.13 4301.99 2375.41 4299.91 2373.69 4297.26 2372.37 4294.04 2371.44 4290.82 2370.51 4286.63 2370.04 4281.47 2370.04ZM4153.95 2318.69 4134.29 2377.78 4173.72 2377.78 4154.06 2318.69ZM4264.71 2313.32 4264.71 2349.42 4280.51 2349.42C4284.59 2349.42 4287.85 2348.93 4290.28 2347.97 4292.72 2347 4294.74 2345.67 4296.35 2343.99 4297.96 2342.31 4299.16 2340.34 4299.95 2338.08 4300.74 2335.83 4301.13 2333.45 4301.13 2330.94 4301.13 2328.15 4300.7 2325.64 4299.84 2323.42 4298.98 2321.2 4297.69 2319.36 4295.97 2317.89 4294.26 2316.42 4292.09 2315.29 4289.48 2314.5 4286.86 2313.72 4283.37 2313.32 4279 2313.32ZM4245.38 2292.16 4280.29 2292.16C4288.81 2292.16 4296.03 2292.88 4301.94 2294.31 4307.84 2295.74 4312.82 2297.91 4316.87 2300.81 4320.91 2303.71 4324.01 2307.38 4326.16 2311.82 4328.31 2316.26 4329.38 2321.49 4329.38 2327.5 4329.38 2330.87 4328.95 2334.04 4328.09 2337.01 4327.23 2339.98 4325.98 2342.68 4324.33 2345.12 4322.69 2347.55 4320.66 2349.7 4318.26 2351.56 4315.87 2353.43 4313.13 2354.93 4310.05 2356.08 4313.99 2356.79 4317.62 2358.05 4320.95 2359.84 4324.28 2361.63 4327.18 2363.94 4329.65 2366.76 4332.12 2369.59 4334.07 2372.91 4335.51 2376.7 4336.94 2380.5 4337.65 2384.76 4337.65 2389.48 4337.65 2394.43 4336.97 2398.9 4335.61 2402.91 4334.25 2406.92 4332.37 2410.47 4329.97 2413.55 4327.57 2416.63 4324.71 2419.28 4321.38 2421.5 4318.05 2423.72 4314.38 2425.54 4310.37 2426.97 4306.36 2428.41 4302.08 2429.46 4297.53 2430.14 4292.98 2430.82 4287.92 2431.16 4282.33 2431.16L4245.38 2431.16C4243.02 2431.16 4241.03 2430.47 4239.42 2429.07 4237.81 2427.67 4237 2425.4 4237 2422.25L4237 2301.08C4237 2297.92 4237.81 2295.65 4239.42 2294.25 4241.03 2292.86 4243.02 2292.16 4245.38 2292.16ZM4154.38 2291.52C4158.61 2291.52 4161.97 2291.57 4164.48 2291.68 4166.98 2291.78 4168.94 2292.03 4170.33 2292.43 4171.73 2292.82 4172.73 2293.41 4173.34 2294.2 4173.95 2294.99 4174.47 2296.06 4174.9 2297.42L4217.87 2420.64C4218.73 2423.21 4219.26 2425.26 4219.48 2426.76 4219.69 2428.26 4219.41 2429.39 4218.62 2430.14 4217.83 2430.9 4216.43 2431.36 4214.43 2431.54 4212.42 2431.72 4209.67 2431.81 4206.16 2431.81 4202.51 2431.81 4199.66 2431.75 4197.62 2431.65 4195.58 2431.54 4194.02 2431.32 4192.94 2431 4191.87 2430.68 4191.12 2430.23 4190.69 2429.66 4190.26 2429.09 4189.9 2428.33 4189.61 2427.4L4180.27 2399.47 4128.06 2399.47 4119.25 2426.65C4118.97 2427.65 4118.59 2428.5 4118.13 2429.18 4117.66 2429.86 4116.91 2430.39 4115.87 2430.79 4114.83 2431.18 4113.36 2431.45 4111.47 2431.59 4109.57 2431.74 4107.08 2431.81 4104 2431.81 4100.71 2431.81 4098.13 2431.7 4096.27 2431.49 4094.4 2431.27 4093.11 2430.75 4092.4 2429.93 4091.68 2429.1 4091.43 2427.94 4091.65 2426.44 4091.86 2424.93 4092.4 2422.93 4093.26 2420.42L4136.12 2297.1C4136.55 2295.88 4137.05 2294.9 4137.62 2294.15 4138.2 2293.4 4139.11 2292.82 4140.36 2292.43 4141.62 2292.03 4143.35 2291.78 4145.57 2291.68 4147.79 2291.57 4150.73 2291.52 4154.38 2291.52ZM4025.18 2291.52C4027.97 2291.52 4030.26 2291.62 4032.05 2291.84 4033.84 2292.05 4035.28 2292.34 4036.35 2292.7 4037.43 2293.06 4038.2 2293.52 4038.66 2294.09 4039.13 2294.67 4039.36 2295.31 4039.36 2296.03L4039.36 2407.85 4083.08 2407.85C4083.8 2407.85 4084.42 2408.05 4084.96 2408.44 4085.5 2408.84 4085.94 2409.48 4086.3 2410.38 4086.66 2411.27 4086.93 2412.45 4087.11 2413.92 4087.29 2415.39 4087.38 2417.2 4087.38 2419.35 4087.38 2421.5 4087.29 2423.3 4087.11 2424.77 4086.93 2426.24 4086.66 2427.46 4086.3 2428.42 4085.94 2429.39 4085.5 2430.09 4084.96 2430.52 4084.42 2430.95 4083.8 2431.16 4083.08 2431.16L4019.38 2431.16C4017.02 2431.16 4015.03 2430.47 4013.42 2429.07 4011.81 2427.67 4011 2425.4 4011 2422.25L4011 2296.03C4011 2295.31 4011.23 2294.67 4011.7 2294.09 4012.16 2293.52 4012.93 2293.06 4014.01 2292.7 4015.08 2292.34 4016.53 2292.05 4018.36 2291.84 4020.18 2291.62 4022.46 2291.52 4025.18 2291.52Z" stroke="#FFFFFF" stroke-width="3" stroke-linejoin="round" stroke-miterlimit="10" fill="#0042A1" fill-rule="evenodd"/><text fill="#000000" fill-opacity="0" font-family="Arial,Arial_MSFontService,sans-serif" font-size="140.293" x="4011" y="2414.27">LAB</text></g></svg>